<svg width="209" height="209" viewBox="0 0 209 209" fill="none" xmlns="http://www.w3.org/2000/svg">
<circle cx="104.5" cy="104.5" r="104.5" fill="#6E44A1"/>
<path d="M107.941 38.217C107.555 37.8313 107.097 37.5252 106.592 37.3163C106.087 37.1075 105.546 37 105 37C104.454 37 103.913 37.1075 103.408 37.3163C102.903 37.5252 102.445 37.8313 102.059 38.217L52.2129 87.9282C51.8274 88.3136 51.5219 88.771 51.3138 89.2742C51.1057 89.7775 50.999 90.3167 51 90.8611V148.857C51 149.956 51.4376 151.01 52.2166 151.787C52.9956 152.564 54.0522 153 55.1539 153H92.5385C93.6401 153 94.6967 152.564 95.4757 151.787C96.2547 151.01 96.6923 149.956 96.6923 148.857V115.717H113.308V148.857C113.308 149.956 113.745 151.01 114.524 151.787C115.303 152.564 116.36 153 117.462 153H154.846C155.948 153 157.004 152.564 157.783 151.787C158.562 151.01 159 149.956 159 148.857V90.8611C159.001 90.3167 158.894 89.7775 158.686 89.2742C158.478 88.771 158.173 88.3136 157.787 87.9282L146.538 76.7183V49.4352C146.538 48.3365 146.101 47.2828 145.322 46.5059C144.543 45.729 143.486 45.2926 142.385 45.2926H134.077C132.975 45.2926 131.919 45.729 131.14 46.5059C130.361 47.2828 129.923 48.3365 129.923 49.4352V60.1479L107.941 38.217ZM59.3077 144.715V92.5761L105 47.0076L150.692 92.5761V144.715H121.615V111.574C121.615 110.475 121.178 109.422 120.399 108.645C119.62 107.868 118.563 107.431 117.462 107.431H92.5385C91.4368 107.431 90.3802 107.868 89.6012 108.645C88.8223 109.422 88.3846 110.475 88.3846 111.574V144.715H59.3077Z" fill="#E8E9EB"/>
</svg>
