<?xml version="1.0" encoding="utf-8"?>
<!-- Generator: Adobe Illustrator 27.9.0, SVG Export Plug-In . SVG Version: 6.00 Build 0)  -->
<svg version="1.1" id="Layer_1" xmlns="http://www.w3.org/2000/svg" xmlns:xlink="http://www.w3.org/1999/xlink" x="0px" y="0px"
	 viewBox="0 0 640 80" style="enable-background:new 0 0 640 80;" xml:space="preserve">
<style type="text/css">
	.st0{fill-rule:evenodd;clip-rule:evenodd;fill:#6E44A1;}
</style>
<path class="st0" d="M93.28,9.97c-5.12,0.18-6.55,0.42-7.14,1.2c-0.56,0.75-0.73,7.62-0.73,29.66V69.5l0.94,0.94
	c0.76,0.76,2.02,0.9,6.55,0.77l5.62-0.17l0.16-10.44c0.1-6.5,0.4-10.73,0.8-11.21c0.5-0.6,3.76-0.77,14.79-0.77
	c7.78,0,14.56,0.16,15.06,0.35c0.5,0.19,3.1,2.88,5.76,5.97c2.67,3.09,6.36,7.63,8.2,10.09c1.98,2.65,4.14,4.84,5.29,5.39
	c1.43,0.68,3.74,0.93,8.75,0.93c5.55,0,6.77-0.15,6.61-0.82c-0.1-0.45-4.12-5.76-8.93-11.8s-8.74-11.23-8.74-11.53
	c0-0.31,0.92-0.78,2.04-1.05c1.12-0.27,2.98-0.7,4.14-0.95c1.15-0.25,3.31-1.05,4.8-1.77c1.49-0.72,3.72-2.46,4.96-3.88
	c1.28-1.46,2.6-3.77,3.04-5.34c0.43-1.53,0.75-4.25,0.72-6.05c-0.04-1.9-0.57-4.41-1.25-5.96c-0.65-1.47-1.9-3.61-2.77-4.76
	c-0.87-1.14-2.76-2.76-4.19-3.6c-1.43-0.84-4.6-2-7.04-2.59c-3.83-0.92-7.68-1.1-27.75-1.28C110.18,9.84,96.81,9.84,93.28,9.97z
	 M189.42,10.12l-9.89,0.34l-0.78,1.46c-0.58,1.09-0.68,2.92-0.39,7.28c0.21,3.2,0.56,15.84,0.76,28.08
	c0.29,17.08,0.55,22.43,1.13,23.01c0.61,0.61,8,0.74,37.15,0.67c27.75-0.07,36.6-0.26,37.25-0.8c0.62-0.52,0.86-1.96,0.86-5.23
	c0-3.26-0.24-4.72-0.86-5.23c-0.6-0.5-3.37-0.68-9.18-0.62c-4.58,0.05-18.07,0.09-29.98,0.09l-21.66,0L193,57.83
	c-0.46-0.74-1.01-3.35-1.22-5.8c-0.31-3.66-0.21-4.62,0.56-5.39c0.81-0.81,3.12-0.93,18.01-0.93h17.07l0.78-0.95
	c0.43-0.52,0.88-2.7,1-4.85c0.17-2.96,0-4.12-0.67-4.8c-0.66-0.66-2.8-1-8.07-1.29c-3.95-0.22-11.63-0.12-17.08,0.21l-9.9,0.6
	l-1.02-1.23c-0.78-0.93-1.02-2.28-1.01-5.68c0.01-2.45,0.21-4.76,0.45-5.15c0.33-0.51,6.61-0.77,24.02-0.97
	c12.97-0.15,23.97-0.3,24.45-0.34c0.48-0.04,2.98,0.1,5.55,0.31c3.86,0.31,4.81,0.22,5.44-0.54c0.46-0.56,0.8-2.73,0.86-5.55
	c0.05-2.55-0.08-4.81-0.29-5.02c-0.21-0.22-7.42-0.34-16.02-0.27c-8.6,0.07-19.04,0.08-23.21,0.03c-4.17-0.05-8.88-0.17-10.49-0.27
	C200.62,9.86,194.86,9.94,189.42,10.12z M29.78,11.03c-1.92,0.42-5.2,1.42-7.29,2.21c-2.09,0.79-5.41,2.25-7.39,3.25
	s-4.91,3.13-6.52,4.74c-1.61,1.61-3.68,4.04-4.61,5.4c-0.93,1.36-2.19,3.79-2.8,5.39c-0.81,2.12-1.09,4.25-1.03,7.86
	c0.05,3.41,0.46,6.03,1.31,8.4c0.68,1.9,1.88,4.54,2.66,5.87s2.46,3.32,3.72,4.42c1.27,1.09,3.87,3.11,5.8,4.47
	c1.92,1.36,4.9,3.12,6.61,3.9c1.72,0.78,4.66,1.83,6.54,2.31c1.88,0.49,6.2,1.17,9.58,1.52c5.11,0.52,7.19,0.46,12.27-0.33
	c3.36-0.53,7.83-1.49,9.93-2.14c2.1-0.65,5.39-1.97,7.32-2.94c1.92-0.97,4.96-2.75,6.75-3.97c1.79-1.21,3.69-2.87,4.22-3.69
	c0.53-0.81,0.97-1.72,0.97-2.01c0-0.29-1.59-1.22-3.53-2.06c-1.94-0.84-4.17-1.53-4.96-1.53s-2.93,1.02-4.77,2.27
	c-1.84,1.25-4.37,2.69-5.62,3.21c-1.25,0.52-4.8,1.46-7.88,2.08c-4.34,0.88-7.03,1.08-11.86,0.85c-3.9-0.18-7.72-0.75-10.18-1.51
	c-2.16-0.67-5.2-1.85-6.75-2.64c-1.55-0.78-3.92-2.53-5.27-3.88c-1.35-1.35-3.09-3.76-3.86-5.35c-0.86-1.78-1.49-4.29-1.64-6.51
	c-0.18-2.83,0.04-4.17,1.01-6.18c0.68-1.41,2.22-3.55,3.42-4.76c1.2-1.21,3.14-2.84,4.31-3.63c1.17-0.79,4.06-1.93,6.41-2.55
	c2.35-0.62,5.98-1.51,8.06-1.98c2.08-0.47,6.01-0.86,8.74-0.85c2.72,0.01,6.52,0.35,8.45,0.77c1.92,0.42,4.79,1.33,6.38,2.04
	c1.59,0.7,4.23,2.32,5.88,3.59c1.98,1.53,3.6,2.31,4.77,2.31c0.97,0,3.24-0.67,5.04-1.5c1.99-0.91,3.27-1.87,3.27-2.43
	c0-0.51-1.16-2.04-2.58-3.4c-1.42-1.36-4.2-3.57-6.19-4.92c-1.98-1.35-5.09-3.05-6.91-3.79c-1.82-0.74-5.48-1.75-8.15-2.26
	c-3-0.57-7.77-0.9-12.5-0.87C36.72,10.24,31.71,10.61,29.78,11.03z M265.7,11.5c-0.18,0.73-0.16,11.28,0.04,23.45
	s0.42,24.8,0.47,28.07c0.07,4.43,0.31,6.17,0.96,6.8c0.74,0.72,4.82,0.88,25.92,1l25.05,0.14l6.41-1.32
	c3.52-0.73,7.26-1.84,8.29-2.47c1.04-0.63,3.72-3.16,5.97-5.62c2.27-2.49,4.45-5.51,4.91-6.8c0.45-1.28,1.38-4.17,2.05-6.41
	l1.23-4.08l-0.61-5.79c-0.33-3.18-0.89-6.85-1.23-8.16c-0.34-1.3-1.55-4.03-2.68-6.07c-1.13-2.04-3.11-4.76-4.39-6.04
	c-1.28-1.28-4.05-3.11-6.14-4.06c-2.1-0.95-5.78-2.23-8.18-2.85l-4.37-1.12h-26.69h-26.69L265.7,11.5z M357.98,11.13
	c-0.54,0.66-0.76,2.28-0.67,5.1c0.07,2.27,0.2,15.23,0.29,28.79l0.16,24.66l1.17,0.87c0.86,0.64,2.34,0.82,5.66,0.68
	c3.35-0.14,4.76-0.46,5.53-1.23c0.88-0.88,1.03-2.03,0.97-7.57c-0.04-3.59-0.25-16.23-0.48-28.09c-0.33-17.24-0.59-21.82-1.26-22.87
	l-0.84-1.31h-4.87C359.83,10.17,358.6,10.38,357.98,11.13z M381.83,11.16c-0.4,0.48-0.83,2.54-0.96,4.58
	c-0.13,2.04-0.07,4.36,0.13,5.15l0.36,1.44l13.83-0.31c11.75-0.26,14.01-0.18,15,0.57l1.17,0.88v23.08
	c0,18.55,0.15,23.17,0.77,23.55c0.43,0.26,3.17,0.63,6.09,0.82c3.65,0.24,5.58,0.13,6.13-0.33c0.68-0.56,0.76-3.5,0.47-17.59
	c-0.19-9.3-0.38-17.31-0.41-17.79c-0.04-0.48,0.11-3.1,0.32-5.83c0.21-2.72,0.52-5.58,0.67-6.35l0.29-1.4l12.06,0.37
	c6.63,0.2,12.73,0.53,13.57,0.72c1,0.23,1.83,0.03,2.48-0.62c0.75-0.75,0.97-2.08,0.97-5.89c0-3.43-0.22-5-0.73-5.16
	c-0.4-0.13-16.64-0.35-36.1-0.5C387,10.33,382.47,10.4,381.83,11.16z M500.78,10.56c-0.8,0.13-3.29,0.65-5.53,1.17
	c-2.24,0.52-6.02,1.7-8.4,2.64c-2.37,0.93-5.69,2.61-7.37,3.72c-1.68,1.11-4.11,3.17-5.4,4.57c-1.29,1.4-2.89,3.61-3.55,4.91
	c-0.66,1.3-1.6,3.88-2.08,5.71c-0.48,1.84-0.87,4.4-0.86,5.7c0.01,1.29,0.4,4.18,0.87,6.42c0.47,2.23,1.58,5.5,2.47,7.25
	c0.88,1.75,2.97,4.67,4.64,6.47c1.67,1.81,4.57,4.11,6.46,5.11c1.88,1,6.38,2.88,10,4.18l6.58,2.36l9.69,0.07
	c8.23,0.06,10.38-0.11,14.29-1.17c2.53-0.69,7.26-2.55,10.51-4.15c3.55-1.74,6.99-3.94,8.62-5.5c1.49-1.43,3.54-4.24,4.55-6.24
	c1.01-2,2.21-4.69,2.66-5.97c0.45-1.29,0.84-4.68,0.87-7.6c0.03-4.07-0.23-5.98-1.17-8.34c-0.67-1.68-2.29-4.76-3.6-6.84
	c-1.31-2.08-3.48-4.72-4.81-5.87c-1.33-1.15-4.58-3.13-7.21-4.41c-2.88-1.4-6.95-2.77-10.19-3.44c-3.87-0.8-7.55-1.1-12.98-1.04
	C505.64,10.29,501.58,10.43,500.78,10.56z M580.89,10.76c-1.6,0.28-4.74,1.19-6.99,2.02c-2.25,0.83-5.36,2.43-6.9,3.56
	c-1.74,1.27-3.23,2.99-3.92,4.5c-0.61,1.34-1.11,3.65-1.12,5.13c-0.01,1.48,0.39,3.82,0.87,5.2c0.49,1.38,1.5,3.32,2.26,4.31
	s2.65,2.5,4.21,3.35c1.56,0.85,4.8,2.2,7.21,3.01c2.4,0.8,7.25,1.88,10.78,2.39c3.52,0.51,12.18,1.28,19.22,1.71
	c11,0.67,13.31,0.98,16.29,2.17c2.27,0.91,3.77,1.92,4.34,2.93l0.86,1.54l-0.97,1.47c-0.57,0.87-2.3,1.97-4.23,2.7
	c-1.79,0.67-5.67,1.64-8.61,2.15c-3.92,0.68-7.45,0.85-13.21,0.63c-6.18-0.24-8.99-0.63-13.11-1.85c-2.88-0.85-7.64-2.84-10.56-4.42
	c-3.02-1.63-6.07-2.87-7.07-2.87c-1.05,0-3,0.84-4.88,2.11c-1.72,1.16-3.48,2.44-3.91,2.85c-0.43,0.41-0.63,1.23-0.44,1.85
	c0.19,0.61,2.47,2.34,5.05,3.85c2.58,1.51,6.47,3.5,8.63,4.42c2.16,0.92,6.4,2.22,9.43,2.89c3.02,0.67,7.07,1.48,8.99,1.8
	c1.92,0.32,5.34,0.75,7.6,0.96c2.26,0.21,6.98,0.07,10.49-0.31c4.36-0.47,8.62-1.42,13.44-2.98c5.74-1.87,7.58-2.75,9.85-4.74
	c1.57-1.38,3.37-3.72,4.14-5.38c0.75-1.61,1.37-3.78,1.37-4.81c0.01-1.03-0.53-3.3-1.18-5.04c-0.65-1.74-2.22-4.34-3.48-5.78
	c-1.26-1.44-3.55-3.21-5.08-3.94c-1.53-0.73-4.57-1.8-6.75-2.38c-2.18-0.58-7.43-1.33-11.65-1.67c-4.23-0.33-10.31-0.86-13.51-1.16
	c-3.2-0.3-8.28-0.73-11.27-0.95c-4.19-0.3-6.13-0.74-8.41-1.92c-1.63-0.84-3.25-1.98-3.58-2.55c-0.45-0.76-0.39-1.44,0.26-2.62
	c0.51-0.93,2.27-2.29,4.23-3.27l3.35-1.68l7.71-0.28c6.24-0.23,9.11-0.04,14.99,0.98c4,0.7,8.34,1.74,9.65,2.32
	c1.31,0.58,3.52,1.88,4.91,2.88c1.39,1,3.02,1.83,3.64,1.83c0.62,0,1.67-0.29,2.34-0.66c0.68-0.36,2.69-1.84,4.48-3.29
	c1.79-1.45,3.32-2.81,3.41-3.02c0.09-0.21-0.96-1.19-2.33-2.16c-1.37-0.97-4.58-2.57-7.15-3.54s-6.5-2.37-8.74-3.1l-4.08-1.33
	l-13.98-0.15C590.08,10.32,582.48,10.48,580.89,10.76z M524.3,22.94c2.53,1.08,6.19,3.04,8.14,4.35c1.95,1.31,4.05,3.27,4.67,4.34
	c0.62,1.08,1.31,2.96,1.54,4.19c0.23,1.23,0.17,3.76-0.12,5.61c-0.29,1.86-1.21,4.88-2.03,6.73c-0.85,1.9-2.58,4.34-3.99,5.64
	c-1.37,1.26-3.49,2.8-4.73,3.42c-1.23,0.62-3.68,1.62-5.45,2.23c-2.6,0.89-4.79,1.09-11.65,1.05c-4.65-0.03-10.12-0.37-12.16-0.77
	c-2.04-0.39-5.06-1.31-6.7-2.04c-1.64-0.73-4.35-2.41-6.02-3.74c-1.66-1.32-3.7-3.55-4.52-4.95c-0.82-1.4-1.79-4.04-2.16-5.87
	c-0.51-2.53-0.5-4.07,0.03-6.43c0.38-1.71,1.47-4.32,2.41-5.8c0.95-1.5,2.94-3.48,4.46-4.45c1.51-0.96,4.2-2.29,5.98-2.97
	c1.78-0.68,5.07-1.58,7.31-2.01c2.5-0.48,7.23-0.73,12.23-0.65l8.16,0.14L524.3,22.94z M135.98,21.84
	c5.86,0.33,11.31,0.85,12.11,1.16c0.8,0.3,2.1,1.25,2.89,2.1c1,1.08,1.43,2.22,1.43,3.77c0,1.22-0.28,2.84-0.63,3.61
	c-0.35,0.76-1.37,1.82-2.28,2.36c-1.36,0.8-3.89,1.02-14.66,1.24c-7.16,0.15-13.41,0.26-13.89,0.25c-0.48-0.01-5.46-0.21-11.07-0.45
	c-5.61-0.24-10.23-0.48-10.28-0.54c-0.05-0.06-0.38-0.95-0.74-1.98c-0.41-1.17-0.51-3.47-0.27-6.11c0.21-2.33,0.68-4.48,1.03-4.77
	c0.36-0.29,1.3-0.65,2.1-0.8c0.8-0.15,6.44-0.3,12.52-0.35C120.34,21.27,130.12,21.51,135.98,21.84z M322.52,23.52
	c3.55,1.4,5.61,2.64,7.28,4.36c1.57,1.61,2.69,3.55,3.43,5.89c0.67,2.12,1.1,5.13,1.09,7.69c-0.02,3.43-0.34,4.89-1.78,7.97
	c-1.27,2.72-2.39,4.18-4,5.23c-1.23,0.8-3.28,1.73-4.56,2.06c-1.28,0.33-4.98,1-8.23,1.49s-12.57,1.06-20.72,1.27
	c-8.15,0.22-15.47,0.23-16.27,0.03l-1.45-0.37l0.02-4.82c0.01-2.65-0.06-10.59-0.16-17.64c-0.1-7.05-0.16-13.27-0.13-13.82
	l0.05-1.01l10.34-0.2c5.69-0.11,14.8-0.17,20.24-0.14l9.9,0.05L322.52,23.52z"/>
</svg>
